G04 #@! TF.GenerationSoftware,KiCad,Pcbnew,5.1.5+dfsg1-2*
G04 #@! TF.CreationDate,2020-01-22T22:25:37+01:00*
G04 #@! TF.ProjectId,jumper-module,6a756d70-6572-42d6-9d6f-64756c652e6b,v1*
G04 #@! TF.SameCoordinates,Original*
G04 #@! TF.FileFunction,Soldermask,Bot*
G04 #@! TF.FilePolarity,Negative*
%FSLAX46Y46*%
G04 Gerber Fmt 4.6, Leading zero omitted, Abs format (unit mm)*
G04 Created by KiCad (PCBNEW 5.1.5+dfsg1-2) date 2020-01-22 22:25:37*
%MOMM*%
%LPD*%
G04 APERTURE LIST*
%ADD10C,0.100000*%
%ADD11C,0.150000*%
G04 APERTURE END LIST*
D10*
X149606000Y-85852000D02*
X149606000Y-106680000D01*
X133350000Y-85852000D02*
X149606000Y-85852000D01*
X133350000Y-106680000D02*
X133350000Y-85852000D01*
X149606000Y-106680000D02*
X133350000Y-106680000D01*
D11*
G36*
X136029000Y-106311000D02*
G01*
X134227000Y-106311000D01*
X134227000Y-104509000D01*
X136029000Y-104509000D01*
X136029000Y-106311000D01*
G37*
G36*
X146189000Y-106311000D02*
G01*
X144387000Y-106311000D01*
X144387000Y-104509000D01*
X146189000Y-104509000D01*
X146189000Y-106311000D01*
G37*
G36*
X148729000Y-106311000D02*
G01*
X146927000Y-106311000D01*
X146927000Y-104509000D01*
X148729000Y-104509000D01*
X148729000Y-106311000D01*
G37*
G36*
X138569000Y-106311000D02*
G01*
X136767000Y-106311000D01*
X136767000Y-104509000D01*
X138569000Y-104509000D01*
X138569000Y-106311000D01*
G37*
G36*
X137781512Y-101973927D02*
G01*
X137930812Y-102003624D01*
X138094784Y-102071544D01*
X138242354Y-102170147D01*
X138367853Y-102295646D01*
X138466456Y-102443216D01*
X138534376Y-102607188D01*
X138569000Y-102781259D01*
X138569000Y-102958741D01*
X138534376Y-103132812D01*
X138466456Y-103296784D01*
X138367853Y-103444354D01*
X138242354Y-103569853D01*
X138094784Y-103668456D01*
X137930812Y-103736376D01*
X137781512Y-103766073D01*
X137756742Y-103771000D01*
X137579258Y-103771000D01*
X137554488Y-103766073D01*
X137405188Y-103736376D01*
X137241216Y-103668456D01*
X137093646Y-103569853D01*
X136968147Y-103444354D01*
X136869544Y-103296784D01*
X136801624Y-103132812D01*
X136767000Y-102958741D01*
X136767000Y-102781259D01*
X136801624Y-102607188D01*
X136869544Y-102443216D01*
X136968147Y-102295646D01*
X137093646Y-102170147D01*
X137241216Y-102071544D01*
X137405188Y-102003624D01*
X137554488Y-101973927D01*
X137579258Y-101969000D01*
X137756742Y-101969000D01*
X137781512Y-101973927D01*
G37*
G36*
X135241512Y-101973927D02*
G01*
X135390812Y-102003624D01*
X135554784Y-102071544D01*
X135702354Y-102170147D01*
X135827853Y-102295646D01*
X135926456Y-102443216D01*
X135994376Y-102607188D01*
X136029000Y-102781259D01*
X136029000Y-102958741D01*
X135994376Y-103132812D01*
X135926456Y-103296784D01*
X135827853Y-103444354D01*
X135702354Y-103569853D01*
X135554784Y-103668456D01*
X135390812Y-103736376D01*
X135241512Y-103766073D01*
X135216742Y-103771000D01*
X135039258Y-103771000D01*
X135014488Y-103766073D01*
X134865188Y-103736376D01*
X134701216Y-103668456D01*
X134553646Y-103569853D01*
X134428147Y-103444354D01*
X134329544Y-103296784D01*
X134261624Y-103132812D01*
X134227000Y-102958741D01*
X134227000Y-102781259D01*
X134261624Y-102607188D01*
X134329544Y-102443216D01*
X134428147Y-102295646D01*
X134553646Y-102170147D01*
X134701216Y-102071544D01*
X134865188Y-102003624D01*
X135014488Y-101973927D01*
X135039258Y-101969000D01*
X135216742Y-101969000D01*
X135241512Y-101973927D01*
G37*
G36*
X145401512Y-101973927D02*
G01*
X145550812Y-102003624D01*
X145714784Y-102071544D01*
X145862354Y-102170147D01*
X145987853Y-102295646D01*
X146086456Y-102443216D01*
X146154376Y-102607188D01*
X146189000Y-102781259D01*
X146189000Y-102958741D01*
X146154376Y-103132812D01*
X146086456Y-103296784D01*
X145987853Y-103444354D01*
X145862354Y-103569853D01*
X145714784Y-103668456D01*
X145550812Y-103736376D01*
X145401512Y-103766073D01*
X145376742Y-103771000D01*
X145199258Y-103771000D01*
X145174488Y-103766073D01*
X145025188Y-103736376D01*
X144861216Y-103668456D01*
X144713646Y-103569853D01*
X144588147Y-103444354D01*
X144489544Y-103296784D01*
X144421624Y-103132812D01*
X144387000Y-102958741D01*
X144387000Y-102781259D01*
X144421624Y-102607188D01*
X144489544Y-102443216D01*
X144588147Y-102295646D01*
X144713646Y-102170147D01*
X144861216Y-102071544D01*
X145025188Y-102003624D01*
X145174488Y-101973927D01*
X145199258Y-101969000D01*
X145376742Y-101969000D01*
X145401512Y-101973927D01*
G37*
G36*
X147941512Y-101973927D02*
G01*
X148090812Y-102003624D01*
X148254784Y-102071544D01*
X148402354Y-102170147D01*
X148527853Y-102295646D01*
X148626456Y-102443216D01*
X148694376Y-102607188D01*
X148729000Y-102781259D01*
X148729000Y-102958741D01*
X148694376Y-103132812D01*
X148626456Y-103296784D01*
X148527853Y-103444354D01*
X148402354Y-103569853D01*
X148254784Y-103668456D01*
X148090812Y-103736376D01*
X147941512Y-103766073D01*
X147916742Y-103771000D01*
X147739258Y-103771000D01*
X147714488Y-103766073D01*
X147565188Y-103736376D01*
X147401216Y-103668456D01*
X147253646Y-103569853D01*
X147128147Y-103444354D01*
X147029544Y-103296784D01*
X146961624Y-103132812D01*
X146927000Y-102958741D01*
X146927000Y-102781259D01*
X146961624Y-102607188D01*
X147029544Y-102443216D01*
X147128147Y-102295646D01*
X147253646Y-102170147D01*
X147401216Y-102071544D01*
X147565188Y-102003624D01*
X147714488Y-101973927D01*
X147739258Y-101969000D01*
X147916742Y-101969000D01*
X147941512Y-101973927D01*
G37*
G36*
X145401512Y-99433927D02*
G01*
X145550812Y-99463624D01*
X145714784Y-99531544D01*
X145862354Y-99630147D01*
X145987853Y-99755646D01*
X146086456Y-99903216D01*
X146154376Y-100067188D01*
X146189000Y-100241259D01*
X146189000Y-100418741D01*
X146154376Y-100592812D01*
X146086456Y-100756784D01*
X145987853Y-100904354D01*
X145862354Y-101029853D01*
X145714784Y-101128456D01*
X145550812Y-101196376D01*
X145401512Y-101226073D01*
X145376742Y-101231000D01*
X145199258Y-101231000D01*
X145174488Y-101226073D01*
X145025188Y-101196376D01*
X144861216Y-101128456D01*
X144713646Y-101029853D01*
X144588147Y-100904354D01*
X144489544Y-100756784D01*
X144421624Y-100592812D01*
X144387000Y-100418741D01*
X144387000Y-100241259D01*
X144421624Y-100067188D01*
X144489544Y-99903216D01*
X144588147Y-99755646D01*
X144713646Y-99630147D01*
X144861216Y-99531544D01*
X145025188Y-99463624D01*
X145174488Y-99433927D01*
X145199258Y-99429000D01*
X145376742Y-99429000D01*
X145401512Y-99433927D01*
G37*
G36*
X147941512Y-99433927D02*
G01*
X148090812Y-99463624D01*
X148254784Y-99531544D01*
X148402354Y-99630147D01*
X148527853Y-99755646D01*
X148626456Y-99903216D01*
X148694376Y-100067188D01*
X148729000Y-100241259D01*
X148729000Y-100418741D01*
X148694376Y-100592812D01*
X148626456Y-100756784D01*
X148527853Y-100904354D01*
X148402354Y-101029853D01*
X148254784Y-101128456D01*
X148090812Y-101196376D01*
X147941512Y-101226073D01*
X147916742Y-101231000D01*
X147739258Y-101231000D01*
X147714488Y-101226073D01*
X147565188Y-101196376D01*
X147401216Y-101128456D01*
X147253646Y-101029853D01*
X147128147Y-100904354D01*
X147029544Y-100756784D01*
X146961624Y-100592812D01*
X146927000Y-100418741D01*
X146927000Y-100241259D01*
X146961624Y-100067188D01*
X147029544Y-99903216D01*
X147128147Y-99755646D01*
X147253646Y-99630147D01*
X147401216Y-99531544D01*
X147565188Y-99463624D01*
X147714488Y-99433927D01*
X147739258Y-99429000D01*
X147916742Y-99429000D01*
X147941512Y-99433927D01*
G37*
G36*
X135241512Y-99433927D02*
G01*
X135390812Y-99463624D01*
X135554784Y-99531544D01*
X135702354Y-99630147D01*
X135827853Y-99755646D01*
X135926456Y-99903216D01*
X135994376Y-100067188D01*
X136029000Y-100241259D01*
X136029000Y-100418741D01*
X135994376Y-100592812D01*
X135926456Y-100756784D01*
X135827853Y-100904354D01*
X135702354Y-101029853D01*
X135554784Y-101128456D01*
X135390812Y-101196376D01*
X135241512Y-101226073D01*
X135216742Y-101231000D01*
X135039258Y-101231000D01*
X135014488Y-101226073D01*
X134865188Y-101196376D01*
X134701216Y-101128456D01*
X134553646Y-101029853D01*
X134428147Y-100904354D01*
X134329544Y-100756784D01*
X134261624Y-100592812D01*
X134227000Y-100418741D01*
X134227000Y-100241259D01*
X134261624Y-100067188D01*
X134329544Y-99903216D01*
X134428147Y-99755646D01*
X134553646Y-99630147D01*
X134701216Y-99531544D01*
X134865188Y-99463624D01*
X135014488Y-99433927D01*
X135039258Y-99429000D01*
X135216742Y-99429000D01*
X135241512Y-99433927D01*
G37*
G36*
X137781512Y-99433927D02*
G01*
X137930812Y-99463624D01*
X138094784Y-99531544D01*
X138242354Y-99630147D01*
X138367853Y-99755646D01*
X138466456Y-99903216D01*
X138534376Y-100067188D01*
X138569000Y-100241259D01*
X138569000Y-100418741D01*
X138534376Y-100592812D01*
X138466456Y-100756784D01*
X138367853Y-100904354D01*
X138242354Y-101029853D01*
X138094784Y-101128456D01*
X137930812Y-101196376D01*
X137781512Y-101226073D01*
X137756742Y-101231000D01*
X137579258Y-101231000D01*
X137554488Y-101226073D01*
X137405188Y-101196376D01*
X137241216Y-101128456D01*
X137093646Y-101029853D01*
X136968147Y-100904354D01*
X136869544Y-100756784D01*
X136801624Y-100592812D01*
X136767000Y-100418741D01*
X136767000Y-100241259D01*
X136801624Y-100067188D01*
X136869544Y-99903216D01*
X136968147Y-99755646D01*
X137093646Y-99630147D01*
X137241216Y-99531544D01*
X137405188Y-99463624D01*
X137554488Y-99433927D01*
X137579258Y-99429000D01*
X137756742Y-99429000D01*
X137781512Y-99433927D01*
G37*
G36*
X147941512Y-96893927D02*
G01*
X148090812Y-96923624D01*
X148254784Y-96991544D01*
X148402354Y-97090147D01*
X148527853Y-97215646D01*
X148626456Y-97363216D01*
X148694376Y-97527188D01*
X148729000Y-97701259D01*
X148729000Y-97878741D01*
X148694376Y-98052812D01*
X148626456Y-98216784D01*
X148527853Y-98364354D01*
X148402354Y-98489853D01*
X148254784Y-98588456D01*
X148090812Y-98656376D01*
X147941512Y-98686073D01*
X147916742Y-98691000D01*
X147739258Y-98691000D01*
X147714488Y-98686073D01*
X147565188Y-98656376D01*
X147401216Y-98588456D01*
X147253646Y-98489853D01*
X147128147Y-98364354D01*
X147029544Y-98216784D01*
X146961624Y-98052812D01*
X146927000Y-97878741D01*
X146927000Y-97701259D01*
X146961624Y-97527188D01*
X147029544Y-97363216D01*
X147128147Y-97215646D01*
X147253646Y-97090147D01*
X147401216Y-96991544D01*
X147565188Y-96923624D01*
X147714488Y-96893927D01*
X147739258Y-96889000D01*
X147916742Y-96889000D01*
X147941512Y-96893927D01*
G37*
G36*
X137781512Y-96893927D02*
G01*
X137930812Y-96923624D01*
X138094784Y-96991544D01*
X138242354Y-97090147D01*
X138367853Y-97215646D01*
X138466456Y-97363216D01*
X138534376Y-97527188D01*
X138569000Y-97701259D01*
X138569000Y-97878741D01*
X138534376Y-98052812D01*
X138466456Y-98216784D01*
X138367853Y-98364354D01*
X138242354Y-98489853D01*
X138094784Y-98588456D01*
X137930812Y-98656376D01*
X137781512Y-98686073D01*
X137756742Y-98691000D01*
X137579258Y-98691000D01*
X137554488Y-98686073D01*
X137405188Y-98656376D01*
X137241216Y-98588456D01*
X137093646Y-98489853D01*
X136968147Y-98364354D01*
X136869544Y-98216784D01*
X136801624Y-98052812D01*
X136767000Y-97878741D01*
X136767000Y-97701259D01*
X136801624Y-97527188D01*
X136869544Y-97363216D01*
X136968147Y-97215646D01*
X137093646Y-97090147D01*
X137241216Y-96991544D01*
X137405188Y-96923624D01*
X137554488Y-96893927D01*
X137579258Y-96889000D01*
X137756742Y-96889000D01*
X137781512Y-96893927D01*
G37*
G36*
X135241512Y-96893927D02*
G01*
X135390812Y-96923624D01*
X135554784Y-96991544D01*
X135702354Y-97090147D01*
X135827853Y-97215646D01*
X135926456Y-97363216D01*
X135994376Y-97527188D01*
X136029000Y-97701259D01*
X136029000Y-97878741D01*
X135994376Y-98052812D01*
X135926456Y-98216784D01*
X135827853Y-98364354D01*
X135702354Y-98489853D01*
X135554784Y-98588456D01*
X135390812Y-98656376D01*
X135241512Y-98686073D01*
X135216742Y-98691000D01*
X135039258Y-98691000D01*
X135014488Y-98686073D01*
X134865188Y-98656376D01*
X134701216Y-98588456D01*
X134553646Y-98489853D01*
X134428147Y-98364354D01*
X134329544Y-98216784D01*
X134261624Y-98052812D01*
X134227000Y-97878741D01*
X134227000Y-97701259D01*
X134261624Y-97527188D01*
X134329544Y-97363216D01*
X134428147Y-97215646D01*
X134553646Y-97090147D01*
X134701216Y-96991544D01*
X134865188Y-96923624D01*
X135014488Y-96893927D01*
X135039258Y-96889000D01*
X135216742Y-96889000D01*
X135241512Y-96893927D01*
G37*
G36*
X145401512Y-96893927D02*
G01*
X145550812Y-96923624D01*
X145714784Y-96991544D01*
X145862354Y-97090147D01*
X145987853Y-97215646D01*
X146086456Y-97363216D01*
X146154376Y-97527188D01*
X146189000Y-97701259D01*
X146189000Y-97878741D01*
X146154376Y-98052812D01*
X146086456Y-98216784D01*
X145987853Y-98364354D01*
X145862354Y-98489853D01*
X145714784Y-98588456D01*
X145550812Y-98656376D01*
X145401512Y-98686073D01*
X145376742Y-98691000D01*
X145199258Y-98691000D01*
X145174488Y-98686073D01*
X145025188Y-98656376D01*
X144861216Y-98588456D01*
X144713646Y-98489853D01*
X144588147Y-98364354D01*
X144489544Y-98216784D01*
X144421624Y-98052812D01*
X144387000Y-97878741D01*
X144387000Y-97701259D01*
X144421624Y-97527188D01*
X144489544Y-97363216D01*
X144588147Y-97215646D01*
X144713646Y-97090147D01*
X144861216Y-96991544D01*
X145025188Y-96923624D01*
X145174488Y-96893927D01*
X145199258Y-96889000D01*
X145376742Y-96889000D01*
X145401512Y-96893927D01*
G37*
G36*
X135241512Y-94353927D02*
G01*
X135390812Y-94383624D01*
X135554784Y-94451544D01*
X135702354Y-94550147D01*
X135827853Y-94675646D01*
X135926456Y-94823216D01*
X135994376Y-94987188D01*
X136029000Y-95161259D01*
X136029000Y-95338741D01*
X135994376Y-95512812D01*
X135926456Y-95676784D01*
X135827853Y-95824354D01*
X135702354Y-95949853D01*
X135554784Y-96048456D01*
X135390812Y-96116376D01*
X135241512Y-96146073D01*
X135216742Y-96151000D01*
X135039258Y-96151000D01*
X135014488Y-96146073D01*
X134865188Y-96116376D01*
X134701216Y-96048456D01*
X134553646Y-95949853D01*
X134428147Y-95824354D01*
X134329544Y-95676784D01*
X134261624Y-95512812D01*
X134227000Y-95338741D01*
X134227000Y-95161259D01*
X134261624Y-94987188D01*
X134329544Y-94823216D01*
X134428147Y-94675646D01*
X134553646Y-94550147D01*
X134701216Y-94451544D01*
X134865188Y-94383624D01*
X135014488Y-94353927D01*
X135039258Y-94349000D01*
X135216742Y-94349000D01*
X135241512Y-94353927D01*
G37*
G36*
X137781512Y-94353927D02*
G01*
X137930812Y-94383624D01*
X138094784Y-94451544D01*
X138242354Y-94550147D01*
X138367853Y-94675646D01*
X138466456Y-94823216D01*
X138534376Y-94987188D01*
X138569000Y-95161259D01*
X138569000Y-95338741D01*
X138534376Y-95512812D01*
X138466456Y-95676784D01*
X138367853Y-95824354D01*
X138242354Y-95949853D01*
X138094784Y-96048456D01*
X137930812Y-96116376D01*
X137781512Y-96146073D01*
X137756742Y-96151000D01*
X137579258Y-96151000D01*
X137554488Y-96146073D01*
X137405188Y-96116376D01*
X137241216Y-96048456D01*
X137093646Y-95949853D01*
X136968147Y-95824354D01*
X136869544Y-95676784D01*
X136801624Y-95512812D01*
X136767000Y-95338741D01*
X136767000Y-95161259D01*
X136801624Y-94987188D01*
X136869544Y-94823216D01*
X136968147Y-94675646D01*
X137093646Y-94550147D01*
X137241216Y-94451544D01*
X137405188Y-94383624D01*
X137554488Y-94353927D01*
X137579258Y-94349000D01*
X137756742Y-94349000D01*
X137781512Y-94353927D01*
G37*
G36*
X145401512Y-94353927D02*
G01*
X145550812Y-94383624D01*
X145714784Y-94451544D01*
X145862354Y-94550147D01*
X145987853Y-94675646D01*
X146086456Y-94823216D01*
X146154376Y-94987188D01*
X146189000Y-95161259D01*
X146189000Y-95338741D01*
X146154376Y-95512812D01*
X146086456Y-95676784D01*
X145987853Y-95824354D01*
X145862354Y-95949853D01*
X145714784Y-96048456D01*
X145550812Y-96116376D01*
X145401512Y-96146073D01*
X145376742Y-96151000D01*
X145199258Y-96151000D01*
X145174488Y-96146073D01*
X145025188Y-96116376D01*
X144861216Y-96048456D01*
X144713646Y-95949853D01*
X144588147Y-95824354D01*
X144489544Y-95676784D01*
X144421624Y-95512812D01*
X144387000Y-95338741D01*
X144387000Y-95161259D01*
X144421624Y-94987188D01*
X144489544Y-94823216D01*
X144588147Y-94675646D01*
X144713646Y-94550147D01*
X144861216Y-94451544D01*
X145025188Y-94383624D01*
X145174488Y-94353927D01*
X145199258Y-94349000D01*
X145376742Y-94349000D01*
X145401512Y-94353927D01*
G37*
G36*
X147941512Y-94353927D02*
G01*
X148090812Y-94383624D01*
X148254784Y-94451544D01*
X148402354Y-94550147D01*
X148527853Y-94675646D01*
X148626456Y-94823216D01*
X148694376Y-94987188D01*
X148729000Y-95161259D01*
X148729000Y-95338741D01*
X148694376Y-95512812D01*
X148626456Y-95676784D01*
X148527853Y-95824354D01*
X148402354Y-95949853D01*
X148254784Y-96048456D01*
X148090812Y-96116376D01*
X147941512Y-96146073D01*
X147916742Y-96151000D01*
X147739258Y-96151000D01*
X147714488Y-96146073D01*
X147565188Y-96116376D01*
X147401216Y-96048456D01*
X147253646Y-95949853D01*
X147128147Y-95824354D01*
X147029544Y-95676784D01*
X146961624Y-95512812D01*
X146927000Y-95338741D01*
X146927000Y-95161259D01*
X146961624Y-94987188D01*
X147029544Y-94823216D01*
X147128147Y-94675646D01*
X147253646Y-94550147D01*
X147401216Y-94451544D01*
X147565188Y-94383624D01*
X147714488Y-94353927D01*
X147739258Y-94349000D01*
X147916742Y-94349000D01*
X147941512Y-94353927D01*
G37*
G36*
X135241512Y-91813927D02*
G01*
X135390812Y-91843624D01*
X135554784Y-91911544D01*
X135702354Y-92010147D01*
X135827853Y-92135646D01*
X135926456Y-92283216D01*
X135994376Y-92447188D01*
X136029000Y-92621259D01*
X136029000Y-92798741D01*
X135994376Y-92972812D01*
X135926456Y-93136784D01*
X135827853Y-93284354D01*
X135702354Y-93409853D01*
X135554784Y-93508456D01*
X135390812Y-93576376D01*
X135241512Y-93606073D01*
X135216742Y-93611000D01*
X135039258Y-93611000D01*
X135014488Y-93606073D01*
X134865188Y-93576376D01*
X134701216Y-93508456D01*
X134553646Y-93409853D01*
X134428147Y-93284354D01*
X134329544Y-93136784D01*
X134261624Y-92972812D01*
X134227000Y-92798741D01*
X134227000Y-92621259D01*
X134261624Y-92447188D01*
X134329544Y-92283216D01*
X134428147Y-92135646D01*
X134553646Y-92010147D01*
X134701216Y-91911544D01*
X134865188Y-91843624D01*
X135014488Y-91813927D01*
X135039258Y-91809000D01*
X135216742Y-91809000D01*
X135241512Y-91813927D01*
G37*
G36*
X137781512Y-91813927D02*
G01*
X137930812Y-91843624D01*
X138094784Y-91911544D01*
X138242354Y-92010147D01*
X138367853Y-92135646D01*
X138466456Y-92283216D01*
X138534376Y-92447188D01*
X138569000Y-92621259D01*
X138569000Y-92798741D01*
X138534376Y-92972812D01*
X138466456Y-93136784D01*
X138367853Y-93284354D01*
X138242354Y-93409853D01*
X138094784Y-93508456D01*
X137930812Y-93576376D01*
X137781512Y-93606073D01*
X137756742Y-93611000D01*
X137579258Y-93611000D01*
X137554488Y-93606073D01*
X137405188Y-93576376D01*
X137241216Y-93508456D01*
X137093646Y-93409853D01*
X136968147Y-93284354D01*
X136869544Y-93136784D01*
X136801624Y-92972812D01*
X136767000Y-92798741D01*
X136767000Y-92621259D01*
X136801624Y-92447188D01*
X136869544Y-92283216D01*
X136968147Y-92135646D01*
X137093646Y-92010147D01*
X137241216Y-91911544D01*
X137405188Y-91843624D01*
X137554488Y-91813927D01*
X137579258Y-91809000D01*
X137756742Y-91809000D01*
X137781512Y-91813927D01*
G37*
G36*
X147941512Y-91813927D02*
G01*
X148090812Y-91843624D01*
X148254784Y-91911544D01*
X148402354Y-92010147D01*
X148527853Y-92135646D01*
X148626456Y-92283216D01*
X148694376Y-92447188D01*
X148729000Y-92621259D01*
X148729000Y-92798741D01*
X148694376Y-92972812D01*
X148626456Y-93136784D01*
X148527853Y-93284354D01*
X148402354Y-93409853D01*
X148254784Y-93508456D01*
X148090812Y-93576376D01*
X147941512Y-93606073D01*
X147916742Y-93611000D01*
X147739258Y-93611000D01*
X147714488Y-93606073D01*
X147565188Y-93576376D01*
X147401216Y-93508456D01*
X147253646Y-93409853D01*
X147128147Y-93284354D01*
X147029544Y-93136784D01*
X146961624Y-92972812D01*
X146927000Y-92798741D01*
X146927000Y-92621259D01*
X146961624Y-92447188D01*
X147029544Y-92283216D01*
X147128147Y-92135646D01*
X147253646Y-92010147D01*
X147401216Y-91911544D01*
X147565188Y-91843624D01*
X147714488Y-91813927D01*
X147739258Y-91809000D01*
X147916742Y-91809000D01*
X147941512Y-91813927D01*
G37*
G36*
X145401512Y-91813927D02*
G01*
X145550812Y-91843624D01*
X145714784Y-91911544D01*
X145862354Y-92010147D01*
X145987853Y-92135646D01*
X146086456Y-92283216D01*
X146154376Y-92447188D01*
X146189000Y-92621259D01*
X146189000Y-92798741D01*
X146154376Y-92972812D01*
X146086456Y-93136784D01*
X145987853Y-93284354D01*
X145862354Y-93409853D01*
X145714784Y-93508456D01*
X145550812Y-93576376D01*
X145401512Y-93606073D01*
X145376742Y-93611000D01*
X145199258Y-93611000D01*
X145174488Y-93606073D01*
X145025188Y-93576376D01*
X144861216Y-93508456D01*
X144713646Y-93409853D01*
X144588147Y-93284354D01*
X144489544Y-93136784D01*
X144421624Y-92972812D01*
X144387000Y-92798741D01*
X144387000Y-92621259D01*
X144421624Y-92447188D01*
X144489544Y-92283216D01*
X144588147Y-92135646D01*
X144713646Y-92010147D01*
X144861216Y-91911544D01*
X145025188Y-91843624D01*
X145174488Y-91813927D01*
X145199258Y-91809000D01*
X145376742Y-91809000D01*
X145401512Y-91813927D01*
G37*
G36*
X147941512Y-89273927D02*
G01*
X148090812Y-89303624D01*
X148254784Y-89371544D01*
X148402354Y-89470147D01*
X148527853Y-89595646D01*
X148626456Y-89743216D01*
X148694376Y-89907188D01*
X148729000Y-90081259D01*
X148729000Y-90258741D01*
X148694376Y-90432812D01*
X148626456Y-90596784D01*
X148527853Y-90744354D01*
X148402354Y-90869853D01*
X148254784Y-90968456D01*
X148090812Y-91036376D01*
X147941512Y-91066073D01*
X147916742Y-91071000D01*
X147739258Y-91071000D01*
X147714488Y-91066073D01*
X147565188Y-91036376D01*
X147401216Y-90968456D01*
X147253646Y-90869853D01*
X147128147Y-90744354D01*
X147029544Y-90596784D01*
X146961624Y-90432812D01*
X146927000Y-90258741D01*
X146927000Y-90081259D01*
X146961624Y-89907188D01*
X147029544Y-89743216D01*
X147128147Y-89595646D01*
X147253646Y-89470147D01*
X147401216Y-89371544D01*
X147565188Y-89303624D01*
X147714488Y-89273927D01*
X147739258Y-89269000D01*
X147916742Y-89269000D01*
X147941512Y-89273927D01*
G37*
G36*
X145401512Y-89273927D02*
G01*
X145550812Y-89303624D01*
X145714784Y-89371544D01*
X145862354Y-89470147D01*
X145987853Y-89595646D01*
X146086456Y-89743216D01*
X146154376Y-89907188D01*
X146189000Y-90081259D01*
X146189000Y-90258741D01*
X146154376Y-90432812D01*
X146086456Y-90596784D01*
X145987853Y-90744354D01*
X145862354Y-90869853D01*
X145714784Y-90968456D01*
X145550812Y-91036376D01*
X145401512Y-91066073D01*
X145376742Y-91071000D01*
X145199258Y-91071000D01*
X145174488Y-91066073D01*
X145025188Y-91036376D01*
X144861216Y-90968456D01*
X144713646Y-90869853D01*
X144588147Y-90744354D01*
X144489544Y-90596784D01*
X144421624Y-90432812D01*
X144387000Y-90258741D01*
X144387000Y-90081259D01*
X144421624Y-89907188D01*
X144489544Y-89743216D01*
X144588147Y-89595646D01*
X144713646Y-89470147D01*
X144861216Y-89371544D01*
X145025188Y-89303624D01*
X145174488Y-89273927D01*
X145199258Y-89269000D01*
X145376742Y-89269000D01*
X145401512Y-89273927D01*
G37*
G36*
X142861512Y-89273927D02*
G01*
X143010812Y-89303624D01*
X143174784Y-89371544D01*
X143322354Y-89470147D01*
X143447853Y-89595646D01*
X143546456Y-89743216D01*
X143614376Y-89907188D01*
X143649000Y-90081259D01*
X143649000Y-90258741D01*
X143614376Y-90432812D01*
X143546456Y-90596784D01*
X143447853Y-90744354D01*
X143322354Y-90869853D01*
X143174784Y-90968456D01*
X143010812Y-91036376D01*
X142861512Y-91066073D01*
X142836742Y-91071000D01*
X142659258Y-91071000D01*
X142634488Y-91066073D01*
X142485188Y-91036376D01*
X142321216Y-90968456D01*
X142173646Y-90869853D01*
X142048147Y-90744354D01*
X141949544Y-90596784D01*
X141881624Y-90432812D01*
X141847000Y-90258741D01*
X141847000Y-90081259D01*
X141881624Y-89907188D01*
X141949544Y-89743216D01*
X142048147Y-89595646D01*
X142173646Y-89470147D01*
X142321216Y-89371544D01*
X142485188Y-89303624D01*
X142634488Y-89273927D01*
X142659258Y-89269000D01*
X142836742Y-89269000D01*
X142861512Y-89273927D01*
G37*
G36*
X140321512Y-89273927D02*
G01*
X140470812Y-89303624D01*
X140634784Y-89371544D01*
X140782354Y-89470147D01*
X140907853Y-89595646D01*
X141006456Y-89743216D01*
X141074376Y-89907188D01*
X141109000Y-90081259D01*
X141109000Y-90258741D01*
X141074376Y-90432812D01*
X141006456Y-90596784D01*
X140907853Y-90744354D01*
X140782354Y-90869853D01*
X140634784Y-90968456D01*
X140470812Y-91036376D01*
X140321512Y-91066073D01*
X140296742Y-91071000D01*
X140119258Y-91071000D01*
X140094488Y-91066073D01*
X139945188Y-91036376D01*
X139781216Y-90968456D01*
X139633646Y-90869853D01*
X139508147Y-90744354D01*
X139409544Y-90596784D01*
X139341624Y-90432812D01*
X139307000Y-90258741D01*
X139307000Y-90081259D01*
X139341624Y-89907188D01*
X139409544Y-89743216D01*
X139508147Y-89595646D01*
X139633646Y-89470147D01*
X139781216Y-89371544D01*
X139945188Y-89303624D01*
X140094488Y-89273927D01*
X140119258Y-89269000D01*
X140296742Y-89269000D01*
X140321512Y-89273927D01*
G37*
G36*
X137781512Y-89273927D02*
G01*
X137930812Y-89303624D01*
X138094784Y-89371544D01*
X138242354Y-89470147D01*
X138367853Y-89595646D01*
X138466456Y-89743216D01*
X138534376Y-89907188D01*
X138569000Y-90081259D01*
X138569000Y-90258741D01*
X138534376Y-90432812D01*
X138466456Y-90596784D01*
X138367853Y-90744354D01*
X138242354Y-90869853D01*
X138094784Y-90968456D01*
X137930812Y-91036376D01*
X137781512Y-91066073D01*
X137756742Y-91071000D01*
X137579258Y-91071000D01*
X137554488Y-91066073D01*
X137405188Y-91036376D01*
X137241216Y-90968456D01*
X137093646Y-90869853D01*
X136968147Y-90744354D01*
X136869544Y-90596784D01*
X136801624Y-90432812D01*
X136767000Y-90258741D01*
X136767000Y-90081259D01*
X136801624Y-89907188D01*
X136869544Y-89743216D01*
X136968147Y-89595646D01*
X137093646Y-89470147D01*
X137241216Y-89371544D01*
X137405188Y-89303624D01*
X137554488Y-89273927D01*
X137579258Y-89269000D01*
X137756742Y-89269000D01*
X137781512Y-89273927D01*
G37*
G36*
X135241512Y-89273927D02*
G01*
X135390812Y-89303624D01*
X135554784Y-89371544D01*
X135702354Y-89470147D01*
X135827853Y-89595646D01*
X135926456Y-89743216D01*
X135994376Y-89907188D01*
X136029000Y-90081259D01*
X136029000Y-90258741D01*
X135994376Y-90432812D01*
X135926456Y-90596784D01*
X135827853Y-90744354D01*
X135702354Y-90869853D01*
X135554784Y-90968456D01*
X135390812Y-91036376D01*
X135241512Y-91066073D01*
X135216742Y-91071000D01*
X135039258Y-91071000D01*
X135014488Y-91066073D01*
X134865188Y-91036376D01*
X134701216Y-90968456D01*
X134553646Y-90869853D01*
X134428147Y-90744354D01*
X134329544Y-90596784D01*
X134261624Y-90432812D01*
X134227000Y-90258741D01*
X134227000Y-90081259D01*
X134261624Y-89907188D01*
X134329544Y-89743216D01*
X134428147Y-89595646D01*
X134553646Y-89470147D01*
X134701216Y-89371544D01*
X134865188Y-89303624D01*
X135014488Y-89273927D01*
X135039258Y-89269000D01*
X135216742Y-89269000D01*
X135241512Y-89273927D01*
G37*
G36*
X147941512Y-86733927D02*
G01*
X148090812Y-86763624D01*
X148254784Y-86831544D01*
X148402354Y-86930147D01*
X148527853Y-87055646D01*
X148626456Y-87203216D01*
X148694376Y-87367188D01*
X148729000Y-87541259D01*
X148729000Y-87718741D01*
X148694376Y-87892812D01*
X148626456Y-88056784D01*
X148527853Y-88204354D01*
X148402354Y-88329853D01*
X148254784Y-88428456D01*
X148090812Y-88496376D01*
X147941512Y-88526073D01*
X147916742Y-88531000D01*
X147739258Y-88531000D01*
X147714488Y-88526073D01*
X147565188Y-88496376D01*
X147401216Y-88428456D01*
X147253646Y-88329853D01*
X147128147Y-88204354D01*
X147029544Y-88056784D01*
X146961624Y-87892812D01*
X146927000Y-87718741D01*
X146927000Y-87541259D01*
X146961624Y-87367188D01*
X147029544Y-87203216D01*
X147128147Y-87055646D01*
X147253646Y-86930147D01*
X147401216Y-86831544D01*
X147565188Y-86763624D01*
X147714488Y-86733927D01*
X147739258Y-86729000D01*
X147916742Y-86729000D01*
X147941512Y-86733927D01*
G37*
G36*
X145401512Y-86733927D02*
G01*
X145550812Y-86763624D01*
X145714784Y-86831544D01*
X145862354Y-86930147D01*
X145987853Y-87055646D01*
X146086456Y-87203216D01*
X146154376Y-87367188D01*
X146189000Y-87541259D01*
X146189000Y-87718741D01*
X146154376Y-87892812D01*
X146086456Y-88056784D01*
X145987853Y-88204354D01*
X145862354Y-88329853D01*
X145714784Y-88428456D01*
X145550812Y-88496376D01*
X145401512Y-88526073D01*
X145376742Y-88531000D01*
X145199258Y-88531000D01*
X145174488Y-88526073D01*
X145025188Y-88496376D01*
X144861216Y-88428456D01*
X144713646Y-88329853D01*
X144588147Y-88204354D01*
X144489544Y-88056784D01*
X144421624Y-87892812D01*
X144387000Y-87718741D01*
X144387000Y-87541259D01*
X144421624Y-87367188D01*
X144489544Y-87203216D01*
X144588147Y-87055646D01*
X144713646Y-86930147D01*
X144861216Y-86831544D01*
X145025188Y-86763624D01*
X145174488Y-86733927D01*
X145199258Y-86729000D01*
X145376742Y-86729000D01*
X145401512Y-86733927D01*
G37*
G36*
X142861512Y-86733927D02*
G01*
X143010812Y-86763624D01*
X143174784Y-86831544D01*
X143322354Y-86930147D01*
X143447853Y-87055646D01*
X143546456Y-87203216D01*
X143614376Y-87367188D01*
X143649000Y-87541259D01*
X143649000Y-87718741D01*
X143614376Y-87892812D01*
X143546456Y-88056784D01*
X143447853Y-88204354D01*
X143322354Y-88329853D01*
X143174784Y-88428456D01*
X143010812Y-88496376D01*
X142861512Y-88526073D01*
X142836742Y-88531000D01*
X142659258Y-88531000D01*
X142634488Y-88526073D01*
X142485188Y-88496376D01*
X142321216Y-88428456D01*
X142173646Y-88329853D01*
X142048147Y-88204354D01*
X141949544Y-88056784D01*
X141881624Y-87892812D01*
X141847000Y-87718741D01*
X141847000Y-87541259D01*
X141881624Y-87367188D01*
X141949544Y-87203216D01*
X142048147Y-87055646D01*
X142173646Y-86930147D01*
X142321216Y-86831544D01*
X142485188Y-86763624D01*
X142634488Y-86733927D01*
X142659258Y-86729000D01*
X142836742Y-86729000D01*
X142861512Y-86733927D01*
G37*
G36*
X137781512Y-86733927D02*
G01*
X137930812Y-86763624D01*
X138094784Y-86831544D01*
X138242354Y-86930147D01*
X138367853Y-87055646D01*
X138466456Y-87203216D01*
X138534376Y-87367188D01*
X138569000Y-87541259D01*
X138569000Y-87718741D01*
X138534376Y-87892812D01*
X138466456Y-88056784D01*
X138367853Y-88204354D01*
X138242354Y-88329853D01*
X138094784Y-88428456D01*
X137930812Y-88496376D01*
X137781512Y-88526073D01*
X137756742Y-88531000D01*
X137579258Y-88531000D01*
X137554488Y-88526073D01*
X137405188Y-88496376D01*
X137241216Y-88428456D01*
X137093646Y-88329853D01*
X136968147Y-88204354D01*
X136869544Y-88056784D01*
X136801624Y-87892812D01*
X136767000Y-87718741D01*
X136767000Y-87541259D01*
X136801624Y-87367188D01*
X136869544Y-87203216D01*
X136968147Y-87055646D01*
X137093646Y-86930147D01*
X137241216Y-86831544D01*
X137405188Y-86763624D01*
X137554488Y-86733927D01*
X137579258Y-86729000D01*
X137756742Y-86729000D01*
X137781512Y-86733927D01*
G37*
G36*
X135241512Y-86733927D02*
G01*
X135390812Y-86763624D01*
X135554784Y-86831544D01*
X135702354Y-86930147D01*
X135827853Y-87055646D01*
X135926456Y-87203216D01*
X135994376Y-87367188D01*
X136029000Y-87541259D01*
X136029000Y-87718741D01*
X135994376Y-87892812D01*
X135926456Y-88056784D01*
X135827853Y-88204354D01*
X135702354Y-88329853D01*
X135554784Y-88428456D01*
X135390812Y-88496376D01*
X135241512Y-88526073D01*
X135216742Y-88531000D01*
X135039258Y-88531000D01*
X135014488Y-88526073D01*
X134865188Y-88496376D01*
X134701216Y-88428456D01*
X134553646Y-88329853D01*
X134428147Y-88204354D01*
X134329544Y-88056784D01*
X134261624Y-87892812D01*
X134227000Y-87718741D01*
X134227000Y-87541259D01*
X134261624Y-87367188D01*
X134329544Y-87203216D01*
X134428147Y-87055646D01*
X134553646Y-86930147D01*
X134701216Y-86831544D01*
X134865188Y-86763624D01*
X135014488Y-86733927D01*
X135039258Y-86729000D01*
X135216742Y-86729000D01*
X135241512Y-86733927D01*
G37*
G36*
X140321512Y-86733927D02*
G01*
X140470812Y-86763624D01*
X140634784Y-86831544D01*
X140782354Y-86930147D01*
X140907853Y-87055646D01*
X141006456Y-87203216D01*
X141074376Y-87367188D01*
X141109000Y-87541259D01*
X141109000Y-87718741D01*
X141074376Y-87892812D01*
X141006456Y-88056784D01*
X140907853Y-88204354D01*
X140782354Y-88329853D01*
X140634784Y-88428456D01*
X140470812Y-88496376D01*
X140321512Y-88526073D01*
X140296742Y-88531000D01*
X140119258Y-88531000D01*
X140094488Y-88526073D01*
X139945188Y-88496376D01*
X139781216Y-88428456D01*
X139633646Y-88329853D01*
X139508147Y-88204354D01*
X139409544Y-88056784D01*
X139341624Y-87892812D01*
X139307000Y-87718741D01*
X139307000Y-87541259D01*
X139341624Y-87367188D01*
X139409544Y-87203216D01*
X139508147Y-87055646D01*
X139633646Y-86930147D01*
X139781216Y-86831544D01*
X139945188Y-86763624D01*
X140094488Y-86733927D01*
X140119258Y-86729000D01*
X140296742Y-86729000D01*
X140321512Y-86733927D01*
G37*
M02*
