M48
; DRILL file {KiCad 5.1.5+dfsg1-2} date Sat 25 Jan 2020 11:54:18 PM CET
; FORMAT={2:4/ absolute / inch / suppress leading zeros}
; #@! TF.CreationDate,2020-01-25T23:54:18+01:00
; #@! TF.GenerationSoftware,Kicad,Pcbnew,5.1.5+dfsg1-2
FMAT,2
INCH,TZ
T1C0.0394
%
G90
G05
T1
X53200Y-34500
X53200Y-35500
X53200Y-36500
X53200Y-37500
X53200Y-38500
X53200Y-39500
X53200Y-40500
X53200Y-41500
X57200Y-34500
X57200Y-35500
X57200Y-36500
X57200Y-37500
X57200Y-38500
X57200Y-39500
X57200Y-40500
X57200Y-41500
X55200Y-34500
X55200Y-35500
X56200Y-34500
X56200Y-35500
X54200Y-34500
X54200Y-35500
X54200Y-36500
X54200Y-37500
X54200Y-38500
X54200Y-39500
X54200Y-40500
X54200Y-41500
X58200Y-34500
X58200Y-35500
X58200Y-36500
X58200Y-37500
X58200Y-38500
X58200Y-39500
X58200Y-40500
X58200Y-41500
T0
M30
