G04 #@! TF.GenerationSoftware,KiCad,Pcbnew,5.1.5+dfsg1-2*
G04 #@! TF.CreationDate,2020-01-22T22:25:37+01:00*
G04 #@! TF.ProjectId,jumper-module,6a756d70-6572-42d6-9d6f-64756c652e6b,v1*
G04 #@! TF.SameCoordinates,Original*
G04 #@! TF.FileFunction,Legend,Bot*
G04 #@! TF.FilePolarity,Positive*
%FSLAX46Y46*%
G04 Gerber Fmt 4.6, Leading zero omitted, Abs format (unit mm)*
G04 Created by KiCad (PCBNEW 5.1.5+dfsg1-2) date 2020-01-22 22:25:37*
%MOMM*%
%LPD*%
G04 APERTURE LIST*
%ADD10C,0.150000*%
%ADD11C,0.100000*%
G04 APERTURE END LIST*
D10*
X141850619Y-101929809D02*
X142850619Y-101929809D01*
X142469666Y-101929809D02*
X142517285Y-101853619D01*
X142517285Y-101701238D01*
X142469666Y-101625047D01*
X142422047Y-101586952D01*
X142326809Y-101548857D01*
X142041095Y-101548857D01*
X141945857Y-101586952D01*
X141898238Y-101625047D01*
X141850619Y-101701238D01*
X141850619Y-101853619D01*
X141898238Y-101929809D01*
X142517285Y-101320285D02*
X142517285Y-101015523D01*
X142850619Y-101206000D02*
X141993476Y-101206000D01*
X141898238Y-101167904D01*
X141850619Y-101091714D01*
X141850619Y-101015523D01*
X142231571Y-100748857D02*
X142231571Y-100139333D01*
X142517285Y-99872666D02*
X142517285Y-99567904D01*
X142850619Y-99758380D02*
X141993476Y-99758380D01*
X141898238Y-99720285D01*
X141850619Y-99644095D01*
X141850619Y-99567904D01*
X141850619Y-99301238D02*
X142517285Y-99301238D01*
X142326809Y-99301238D02*
X142422047Y-99263142D01*
X142469666Y-99225047D01*
X142517285Y-99148857D01*
X142517285Y-99072666D01*
X141850619Y-98882190D02*
X142517285Y-98463142D01*
X142517285Y-98882190D02*
X141850619Y-98463142D01*
X141945857Y-98158380D02*
X141898238Y-98120285D01*
X141850619Y-98158380D01*
X141898238Y-98196476D01*
X141945857Y-98158380D01*
X141850619Y-98158380D01*
X141898238Y-97434571D02*
X141850619Y-97510761D01*
X141850619Y-97663142D01*
X141898238Y-97739333D01*
X141945857Y-97777428D01*
X142041095Y-97815523D01*
X142326809Y-97815523D01*
X142422047Y-97777428D01*
X142469666Y-97739333D01*
X142517285Y-97663142D01*
X142517285Y-97510761D01*
X142469666Y-97434571D01*
X141850619Y-96977428D02*
X141898238Y-97053619D01*
X141945857Y-97091714D01*
X142041095Y-97129809D01*
X142326809Y-97129809D01*
X142422047Y-97091714D01*
X142469666Y-97053619D01*
X142517285Y-96977428D01*
X142517285Y-96863142D01*
X142469666Y-96786952D01*
X142422047Y-96748857D01*
X142326809Y-96710761D01*
X142041095Y-96710761D01*
X141945857Y-96748857D01*
X141898238Y-96786952D01*
X141850619Y-96863142D01*
X141850619Y-96977428D01*
X141850619Y-96367904D02*
X142517285Y-96367904D01*
X142422047Y-96367904D02*
X142469666Y-96329809D01*
X142517285Y-96253619D01*
X142517285Y-96139333D01*
X142469666Y-96063142D01*
X142374428Y-96025047D01*
X141850619Y-96025047D01*
X142374428Y-96025047D02*
X142469666Y-95986952D01*
X142517285Y-95910761D01*
X142517285Y-95796476D01*
X142469666Y-95720285D01*
X142374428Y-95682190D01*
X141850619Y-95682190D01*
X141153000Y-105282190D02*
X141200619Y-105358380D01*
X141200619Y-105472666D01*
X141153000Y-105586952D01*
X141057761Y-105663142D01*
X140962523Y-105701238D01*
X140772047Y-105739333D01*
X140629190Y-105739333D01*
X140438714Y-105701238D01*
X140343476Y-105663142D01*
X140248238Y-105586952D01*
X140200619Y-105472666D01*
X140200619Y-105396476D01*
X140248238Y-105282190D01*
X140295857Y-105244095D01*
X140629190Y-105244095D01*
X140629190Y-105396476D01*
X140248238Y-104596476D02*
X140200619Y-104672666D01*
X140200619Y-104825047D01*
X140248238Y-104901238D01*
X140343476Y-104939333D01*
X140724428Y-104939333D01*
X140819666Y-104901238D01*
X140867285Y-104825047D01*
X140867285Y-104672666D01*
X140819666Y-104596476D01*
X140724428Y-104558380D01*
X140629190Y-104558380D01*
X140533952Y-104939333D01*
X140867285Y-104215523D02*
X140200619Y-104215523D01*
X140772047Y-104215523D02*
X140819666Y-104177428D01*
X140867285Y-104101238D01*
X140867285Y-103986952D01*
X140819666Y-103910761D01*
X140724428Y-103872666D01*
X140200619Y-103872666D01*
X140248238Y-103186952D02*
X140200619Y-103263142D01*
X140200619Y-103415523D01*
X140248238Y-103491714D01*
X140343476Y-103529809D01*
X140724428Y-103529809D01*
X140819666Y-103491714D01*
X140867285Y-103415523D01*
X140867285Y-103263142D01*
X140819666Y-103186952D01*
X140724428Y-103148857D01*
X140629190Y-103148857D01*
X140533952Y-103529809D01*
X140200619Y-102806000D02*
X140867285Y-102806000D01*
X140676809Y-102806000D02*
X140772047Y-102767904D01*
X140819666Y-102729809D01*
X140867285Y-102653619D01*
X140867285Y-102577428D01*
X140200619Y-102310761D02*
X140867285Y-102310761D01*
X141200619Y-102310761D02*
X141153000Y-102348857D01*
X141105380Y-102310761D01*
X141153000Y-102272666D01*
X141200619Y-102310761D01*
X141105380Y-102310761D01*
X140248238Y-101586952D02*
X140200619Y-101663142D01*
X140200619Y-101815523D01*
X140248238Y-101891714D01*
X140295857Y-101929809D01*
X140391095Y-101967904D01*
X140676809Y-101967904D01*
X140772047Y-101929809D01*
X140819666Y-101891714D01*
X140867285Y-101815523D01*
X140867285Y-101663142D01*
X140819666Y-101586952D01*
X141200619Y-100406000D02*
X140486333Y-100406000D01*
X140343476Y-100444095D01*
X140248238Y-100520285D01*
X140200619Y-100634571D01*
X140200619Y-100710761D01*
X140867285Y-99682190D02*
X140200619Y-99682190D01*
X140867285Y-100025047D02*
X140343476Y-100025047D01*
X140248238Y-99986952D01*
X140200619Y-99910761D01*
X140200619Y-99796476D01*
X140248238Y-99720285D01*
X140295857Y-99682190D01*
X140200619Y-99301238D02*
X140867285Y-99301238D01*
X140772047Y-99301238D02*
X140819666Y-99263142D01*
X140867285Y-99186952D01*
X140867285Y-99072666D01*
X140819666Y-98996476D01*
X140724428Y-98958380D01*
X140200619Y-98958380D01*
X140724428Y-98958380D02*
X140819666Y-98920285D01*
X140867285Y-98844095D01*
X140867285Y-98729809D01*
X140819666Y-98653619D01*
X140724428Y-98615523D01*
X140200619Y-98615523D01*
X140867285Y-98234571D02*
X139867285Y-98234571D01*
X140819666Y-98234571D02*
X140867285Y-98158380D01*
X140867285Y-98006000D01*
X140819666Y-97929809D01*
X140772047Y-97891714D01*
X140676809Y-97853619D01*
X140391095Y-97853619D01*
X140295857Y-97891714D01*
X140248238Y-97929809D01*
X140200619Y-98006000D01*
X140200619Y-98158380D01*
X140248238Y-98234571D01*
X140248238Y-97206000D02*
X140200619Y-97282190D01*
X140200619Y-97434571D01*
X140248238Y-97510761D01*
X140343476Y-97548857D01*
X140724428Y-97548857D01*
X140819666Y-97510761D01*
X140867285Y-97434571D01*
X140867285Y-97282190D01*
X140819666Y-97206000D01*
X140724428Y-97167904D01*
X140629190Y-97167904D01*
X140533952Y-97548857D01*
X140200619Y-96825047D02*
X140867285Y-96825047D01*
X140676809Y-96825047D02*
X140772047Y-96786952D01*
X140819666Y-96748857D01*
X140867285Y-96672666D01*
X140867285Y-96596476D01*
X140200619Y-95720285D02*
X141200619Y-95720285D01*
X140486333Y-95453619D01*
X141200619Y-95186952D01*
X140200619Y-95186952D01*
X140200619Y-94691714D02*
X140248238Y-94767904D01*
X140295857Y-94806000D01*
X140391095Y-94844095D01*
X140676809Y-94844095D01*
X140772047Y-94806000D01*
X140819666Y-94767904D01*
X140867285Y-94691714D01*
X140867285Y-94577428D01*
X140819666Y-94501238D01*
X140772047Y-94463142D01*
X140676809Y-94425047D01*
X140391095Y-94425047D01*
X140295857Y-94463142D01*
X140248238Y-94501238D01*
X140200619Y-94577428D01*
X140200619Y-94691714D01*
X140200619Y-93739333D02*
X141200619Y-93739333D01*
X140248238Y-93739333D02*
X140200619Y-93815523D01*
X140200619Y-93967904D01*
X140248238Y-94044095D01*
X140295857Y-94082190D01*
X140391095Y-94120285D01*
X140676809Y-94120285D01*
X140772047Y-94082190D01*
X140819666Y-94044095D01*
X140867285Y-93967904D01*
X140867285Y-93815523D01*
X140819666Y-93739333D01*
X140867285Y-93015523D02*
X140200619Y-93015523D01*
X140867285Y-93358380D02*
X140343476Y-93358380D01*
X140248238Y-93320285D01*
X140200619Y-93244095D01*
X140200619Y-93129809D01*
X140248238Y-93053619D01*
X140295857Y-93015523D01*
X140200619Y-92520285D02*
X140248238Y-92596476D01*
X140343476Y-92634571D01*
X141200619Y-92634571D01*
X140248238Y-91910761D02*
X140200619Y-91986952D01*
X140200619Y-92139333D01*
X140248238Y-92215523D01*
X140343476Y-92253619D01*
X140724428Y-92253619D01*
X140819666Y-92215523D01*
X140867285Y-92139333D01*
X140867285Y-91986952D01*
X140819666Y-91910761D01*
X140724428Y-91872666D01*
X140629190Y-91872666D01*
X140533952Y-92253619D01*
D11*
X149606000Y-85852000D02*
X149606000Y-106680000D01*
X133350000Y-85852000D02*
X149606000Y-85852000D01*
X133350000Y-106680000D02*
X133350000Y-85852000D01*
X149606000Y-106680000D02*
X133350000Y-106680000D01*
M02*
