M48
; DRILL file {KiCad 5.1.5+dfsg1-2} date Wed 22 Jan 2020 10:26:42 PM CET
; FORMAT={3:3/ absolute / metric / suppress leading zeros}
; #@! TF.CreationDate,2020-01-22T22:26:42+01:00
; #@! TF.GenerationSoftware,Kicad,Pcbnew,5.1.5+dfsg1-2
FMAT,2
METRIC,TZ
T1C1.000
%
G90
G05
T1
X145288Y-87630
X145288Y-90170
X145288Y-92710
X145288Y-95250
X145288Y-97790
X145288Y-100330
X145288Y-102870
X145288Y-105410
X147828Y-87630
X147828Y-90170
X147828Y-92710
X147828Y-95250
X147828Y-97790
X147828Y-100330
X147828Y-102870
X147828Y-105410
X140208Y-87630
X140208Y-90170
X142748Y-87630
X142748Y-90170
X135128Y-87630
X135128Y-90170
X135128Y-92710
X135128Y-95250
X135128Y-97790
X135128Y-100330
X135128Y-102870
X135128Y-105410
X137668Y-87630
X137668Y-90170
X137668Y-92710
X137668Y-95250
X137668Y-97790
X137668Y-100330
X137668Y-102870
X137668Y-105410
T0
M30
